<svg width="18" height="19" viewBox="0 0 18 19" fill="none" xmlns="http://www.w3.org/2000/svg">
<path d="M9 18.036C6.54 18.036 6.25 18.023 5.29 17.981C4.54137 17.9564 3.80243 17.8042 3.105 17.531C2.50818 17.2987 1.96618 16.9449 1.51342 16.492C1.06066 16.039 0.707034 15.4969 0.475 14.9C0.212306 14.2 0.0706178 13.4605 0.056 12.713C-7.45058e-09 11.755 0 11.441 0 9C0 6.533 0.013 6.245 0.056 5.29C0.0709376 4.54352 0.212621 3.80501 0.475 3.106C0.706767 2.50834 1.06063 1.96558 1.51399 1.51239C1.96736 1.0592 2.51025 0.70554 3.108 0.474C3.80664 0.210202 4.54535 0.0681442 5.292 0.0539999C6.247 -1.00583e-07 6.561 0 9 0C11.48 0 11.765 0.0129999 12.71 0.0539999C13.458 0.0679999 14.2 0.21 14.9 0.474C15.4976 0.705808 16.0403 1.05956 16.4937 1.51272C16.947 1.96587 17.301 2.50849 17.533 3.106C17.8 3.816 17.943 4.566 17.954 5.323C18.01 6.281 18.01 6.594 18.01 9.034C18.01 11.474 17.996 11.794 17.954 12.741C17.9391 13.4892 17.797 14.2294 17.534 14.93C17.3014 15.5273 16.9471 16.0698 16.4936 16.5229C16.0402 16.976 15.4975 17.3298 14.9 17.562C14.2 17.824 13.461 17.966 12.714 17.981C11.759 18.036 11.446 18.036 9 18.036ZM8.966 1.583C6.52 1.583 6.266 1.595 5.311 1.638C4.74065 1.64546 4.1758 1.75065 3.641 1.949C3.25093 2.09852 2.89652 2.32811 2.60062 2.62298C2.30471 2.91785 2.07388 3.27146 1.923 3.661C1.723 4.201 1.618 4.772 1.612 5.348C1.559 6.317 1.559 6.571 1.559 9C1.559 11.4 1.568 11.691 1.612 12.654C1.621 13.224 1.726 13.789 1.923 14.324C2.229 15.111 2.853 15.733 3.642 16.035C4.17611 16.2346 4.74085 16.3398 5.311 16.346C6.279 16.402 6.534 16.402 8.966 16.402C11.419 16.402 11.673 16.39 12.62 16.346C13.1904 16.3391 13.7553 16.2339 14.29 16.035C14.678 15.8843 15.0304 15.6546 15.3248 15.3604C15.6192 15.0662 15.8491 14.7139 16 14.326C16.2 13.786 16.305 13.214 16.311 12.638H16.322C16.365 11.682 16.365 11.427 16.365 8.984C16.365 6.541 16.354 6.284 16.311 5.329C16.302 4.75946 16.1968 4.19553 16 3.661C15.8495 3.27255 15.6197 2.9197 15.3253 2.62495C15.0309 2.33019 14.6783 2.09999 14.29 1.949C13.7555 1.74968 13.1904 1.64446 12.62 1.638C11.653 1.583 11.4 1.583 8.966 1.583ZM9 13.619C8.08557 13.6196 7.19151 13.349 6.43089 12.8414C5.67027 12.3338 5.07726 11.6121 4.72686 10.7675C4.37647 9.92282 4.28443 8.99325 4.46239 8.09631C4.64035 7.19936 5.08031 6.37534 5.72663 5.72846C6.37295 5.08158 7.19659 4.64091 8.09338 4.46217C8.99017 4.28344 9.91982 4.37467 10.7648 4.72433C11.6097 5.07399 12.332 5.66638 12.8402 6.42656C13.3484 7.18674 13.6198 8.08057 13.62 8.995C13.6184 10.2202 13.1313 11.3948 12.2653 12.2615C11.3994 13.1282 10.2252 13.6164 9 13.619ZM9 5.993C8.40666 5.993 7.82664 6.16895 7.33329 6.49859C6.83994 6.82824 6.45542 7.29677 6.22836 7.84495C6.0013 8.39313 5.94189 8.99633 6.05764 9.57827C6.1734 10.1602 6.45912 10.6948 6.87868 11.1143C7.29824 11.5339 7.83279 11.8196 8.41473 11.9354C8.99667 12.0511 9.59987 11.9917 10.1481 11.7646C10.6962 11.5376 11.1648 11.1531 11.4944 10.6597C11.8241 10.1664 12 9.58634 12 8.993C11.9982 8.19792 11.6815 7.43593 11.1193 6.87372C10.5571 6.31151 9.79508 5.99485 9 5.993ZM13.8 5.28C13.6584 5.27947 13.5184 5.25107 13.3878 5.19641C13.2572 5.14175 13.1386 5.06191 13.0389 4.96143C12.8375 4.75852 12.7249 4.4839 12.726 4.198C12.7271 3.9121 12.8417 3.63832 13.0446 3.43691C13.2475 3.2355 13.5221 3.12294 13.808 3.124C14.0939 3.12506 14.3677 3.23965 14.5691 3.44257C14.7705 3.64548 14.8831 3.9201 14.882 4.206C14.8809 4.4919 14.7663 4.76568 14.5634 4.96709C14.3605 5.1685 14.0859 5.28106 13.8 5.28Z" fill="#040404"/>
</svg>
